<?xml version="1.0" encoding="UTF-8"?><svg id="Layer1" xmlns="http://www.w3.org/2000/svg" xmlns:xlink="http://www.w3.org/1999/xlink" viewBox="0 0 247.66 228.1"><defs><style>.cls-1{fill:none;}.cls-1,.cls-2{stroke:#009fe8;stroke-miterlimit:10;stroke-width:4px;}.cls-3{fill:url(#_蜷咲ｧｰ譛ｪ險ｭ螳壹げ繝ｩ繝・・繧ｷ繝ｧ繝ｳ_184);}.cls-4{fill:url(#_蜷咲ｧｰ譛ｪ險ｭ螳壹げ繝ｩ繝・・繧ｷ繝ｧ繝ｳ_184-3);}.cls-2{fill:#231815;}.cls-5{fill:url(#_蜷咲ｧｰ譛ｪ險ｭ螳壹げ繝ｩ繝・・繧ｷ繝ｧ繝ｳ_184-2);}</style><radialGradient id="_蜷咲ｧｰ譛ｪ險ｭ螳壹げ繝ｩ繝・・繧ｷ繝ｧ繝ｳ_184" cx="123.33" cy="118.49" fx="123.33" fy="118.49" r="45.29" gradientUnits="userSpaceOnUse"><stop offset="0" stop-color="#f8f6fa"/><stop offset=".46" stop-color="#1b99d7"/><stop offset=".79" stop-color="#1a2784"/><stop offset="1" stop-color="#256eb6" stop-opacity="0"/></radialGradient><radialGradient id="_蜷咲ｧｰ譛ｪ險ｭ螳壹げ繝ｩ繝・・繧ｷ繝ｧ繝ｳ_184-2" cx="147.2" cy="41.4" fx="147.2" fy="41.4" r="12.15" xlink:href="#_蜷咲ｧｰ譛ｪ險ｭ螳壹げ繝ｩ繝・・繧ｷ繝ｧ繝ｳ_184"/><radialGradient id="_蜷咲ｧｰ譛ｪ險ｭ螳壹げ繝ｩ繝・・繧ｷ繝ｧ繝ｳ_184-3" cx="192.68" cy="157.93" fx="192.68" fy="157.93" r="10.16" xlink:href="#_蜷咲ｧｰ譛ｪ險ｭ螳壹げ繝ｩ繝・・繧ｷ繝ｧ繝ｳ_184"/></defs><polygon class="cls-2" points="173.02 225.98 51.49 212.62 2.3 100.68 74.64 2.11 196.17 15.48 245.36 127.41 173.02 225.98"/><ellipse class="cls-1" cx="124.59" cy="117.96" rx="2.76" ry="83.48" transform="translate(-35.83 57.11) rotate(-22.66)"/><ellipse class="cls-1" cx="123.33" cy="118.49" rx="83.48" ry="16.91" transform="translate(-24.67 204.19) rotate(-73.92)"/><ellipse class="cls-1" cx="125.88" cy="118.33" rx="14.38" ry="83.48" transform="translate(-37.41 174.78) rotate(-62.3)"/><ellipse class="cls-1" cx="124.59" cy="117.96" rx="83.48" ry="20.5" transform="translate(-39.81 68.88) rotate(-26.81)"/><circle class="cls-3" cx="123.33" cy="118.49" r="45.29"/><circle class="cls-5" cx="147.2" cy="41.4" r="12.15"/><circle class="cls-4" cx="192.68" cy="157.93" r="10.16"/></svg>