<?xml version="1.0" encoding="UTF-8"?><svg id="_繝ｬ繧､繝､繝ｼ_1" xmlns="http://www.w3.org/2000/svg" xmlns:xlink="http://www.w3.org/1999/xlink" viewBox="0 0 244.22 224.92"><defs><style>.cls-1{fill:#231815;}.cls-1,.cls-2{stroke:#00a0e9;stroke-miterlimit:10;}.cls-3{fill:url(#_蜷咲ｧｰ譛ｪ險ｭ螳壹げ繝ｩ繝・・繧ｷ繝ｧ繝ｳ_184);}.cls-4{fill:url(#_蜷咲ｧｰ譛ｪ險ｭ螳壹げ繝ｩ繝・・繧ｷ繝ｧ繝ｳ_184-3);}.cls-2{fill:none;}.cls-5{fill:url(#_蜷咲ｧｰ譛ｪ險ｭ螳壹げ繝ｩ繝・・繧ｷ繝ｧ繝ｳ_184-2);}</style><radialGradient id="_蜷咲ｧｰ譛ｪ險ｭ螳壹げ繝ｩ繝・・繧ｷ繝ｧ繝ｳ_184" cx="121.61" cy="116.9" fx="121.61" fy="116.9" r="45.29" gradientUnits="userSpaceOnUse"><stop offset="0" stop-color="#f8f6fb"/><stop offset=".46" stop-color="#1d9ad8"/><stop offset=".79" stop-color="#1a2785"/><stop offset="1" stop-color="#266eb7" stop-opacity="0"/></radialGradient><radialGradient id="_蜷咲ｧｰ譛ｪ險ｭ螳壹げ繝ｩ繝・・繧ｷ繝ｧ繝ｳ_184-2" cx="145.48" cy="39.81" fx="145.48" fy="39.81" r="12.15" xlink:href="#_蜷咲ｧｰ譛ｪ險ｭ螳壹げ繝ｩ繝・・繧ｷ繝ｧ繝ｳ_184"/><radialGradient id="_蜷咲ｧｰ譛ｪ險ｭ螳壹げ繝ｩ繝・・繧ｷ繝ｧ繝ｳ_184-3" cx="190.96" cy="156.35" fx="190.96" fy="156.35" r="10.16" xlink:href="#_蜷咲ｧｰ譛ｪ險ｭ螳壹げ繝ｩ繝・・繧ｷ繝ｧ繝ｳ_184"/></defs><polygon class="cls-1" points="171.3 224.4 49.77 211.03 .57 99.1 72.91 .53 194.45 13.89 243.64 125.83 171.3 224.4"/><ellipse class="cls-2" cx="122.87" cy="116.38" rx="2.76" ry="83.48" transform="translate(-35.35 56.33) rotate(-22.66)"/><ellipse class="cls-2" cx="121.61" cy="116.9" rx="83.48" ry="16.91" transform="translate(-24.39 201.39) rotate(-73.92)"/><ellipse class="cls-2" cx="124.16" cy="116.75" rx="14.38" ry="83.48" transform="translate(-36.92 172.41) rotate(-62.3)"/><ellipse class="cls-2" cx="122.87" cy="116.38" rx="83.48" ry="20.5" transform="translate(-39.28 67.93) rotate(-26.81)"/><circle class="cls-3" cx="121.61" cy="116.9" r="45.29"/><circle class="cls-5" cx="145.48" cy="39.81" r="12.15"/><circle class="cls-4" cx="190.96" cy="156.35" r="10.16"/></svg>