<?xml version="1.0" encoding="UTF-8"?><svg id="_繝ｬ繧､繝､繝ｼ_1" xmlns="http://www.w3.org/2000/svg" xmlns:xlink="http://www.w3.org/1999/xlink" viewBox="0 0 64.31 75.83"><defs><style>.cls-1{fill:#fff;}.cls-2{fill:url(#_蜷咲ｧｰ譛ｪ險ｭ螳壹げ繝ｩ繝・・繧ｷ繝ｧ繝ｳ_12);stroke:#231815;stroke-miterlimit:10;}.cls-3{fill:none;filter:url(#drop-shadow-1);}</style><linearGradient id="_蜷咲ｧｰ譛ｪ險ｭ螳壹げ繝ｩ繝・・繧ｷ繝ｧ繝ｳ_12" x1="16.4" y1="58.98" x2="41.52" y2="6.12" gradientUnits="userSpaceOnUse"><stop offset="0" stop-color="#d31c43"/><stop offset=".15" stop-color="#aa1532"/><stop offset=".35" stop-color="#7e0e21"/><stop offset=".53" stop-color="#5b0913"/><stop offset=".71" stop-color="#430509"/><stop offset=".87" stop-color="#340204"/><stop offset="1" stop-color="#2f0202"/></linearGradient><filter id="drop-shadow-1" filterUnits="userSpaceOnUse"><feOffset dx=".57" dy=".57"/><feGaussianBlur result="blur" stdDeviation="2.83"/><feFlood flood-color="#231815" flood-opacity=".9"/><feComposite in2="blur" operator="in"/><feComposite in="SourceGraphic"/></filter></defs><path class="cls-2" d="m56.49,60.51l-24.13,14.11c-1.6.94-3.58.94-5.19,0L3.04,60.51c-1.57-.92-2.54-2.61-2.54-4.43V5.63C.5,2.8,2.8.5,5.63.5h48.26c2.84,0,5.13,2.3,5.13,5.13v50.45c0,1.82-.97,3.51-2.54,4.43Z"/><g class="cls-3"><path class="cls-1" d="m26.07,59.18l-.25-1.12c-.14-.64-.21-1.26-.21-1.91,0-1.81.32-4.36.96-7.58l4.29-23.01c.71-3.75,2.86-15.16,14.29-15.16,5.58,0,9.63,3.75,9.63,8.92,0,3.95-2.12,7.12-4.64,9.04,2.74,1.57,4.95,4.55,4.95,8.85,0,8.21-7.01,12.63-13.61,12.63-3.35,0-6.26-.82-8.43-2.35l-.25,1.39c-.46,2.31-1.08,5.43-1.08,7.72,0,.34,0,.67.03.97l.2,1.61h-5.87Zm8.12-17.97c1.11,1.38,3.6,3.1,6.93,3.1,3.59,0,7.6-2.9,7.6-7.07,0-3.65-3.53-5.56-7.02-5.56h-2.8l.75-5.37,1.22-.02c6.14-.11,7.76-4.33,7.76-6.54,0-3.39-2.9-3.66-3.79-3.66-2.55,0-6.12.98-7.67,9.49l-2.99,15.62Z"/><path class="cls-1" d="m31.38,48.62c-.49,2.44-1.11,5.58-1.11,7.97,0,.4,0,.8.04,1.15h-3.1c-.09-.4-.18-.93-.18-1.59,0-1.82.35-4.38.93-7.3l4.29-23.02c1.2-6.33,3.98-13.99,12.88-13.99,4.56,0,8.19,2.88,8.19,7.48,0,4.29-2.97,7.84-6.29,9.16l-.09.18c3.36.71,6.68,3.67,6.68,8.54,0,7.53-6.64,11.2-12.18,11.2-4.16,0-7.35-1.37-9.16-3.5h-.27l-.66,3.72Zm9.16-18.37l.35-2.52c7.04-.13,9.16-5.14,9.16-7.97,0-3.36-2.39-5.09-5.22-5.09-5,0-7.84,3.85-9.08,10.67l-3.1,16.2c1.19,1.9,4.34,4.21,8.46,4.21s9.03-3.32,9.03-8.5c0-4.47-4.07-6.99-8.46-6.99h-1.15Z"/></g></svg>