<?xml version="1.0" encoding="UTF-8"?><svg id="_繝ｬ繧､繝､繝ｼ_1" xmlns="http://www.w3.org/2000/svg" xmlns:xlink="http://www.w3.org/1999/xlink" viewBox="0 0 64.28 75.83"><defs><style>.cls-1{fill:#fff;}.cls-2{fill:url(#_蜷咲ｧｰ譛ｪ險ｭ螳壹げ繝ｩ繝・・繧ｷ繝ｧ繝ｳ_12);stroke:#231815;stroke-miterlimit:10;}.cls-3{fill:none;filter:url(#drop-shadow-1);}</style><linearGradient id="_蜷咲ｧｰ譛ｪ險ｭ螳壹げ繝ｩ繝・・繧ｷ繝ｧ繝ｳ_12" x1="16.4" y1="58.98" x2="41.52" y2="6.12" gradientUnits="userSpaceOnUse"><stop offset="0" stop-color="#d31c43"/><stop offset=".15" stop-color="#aa1532"/><stop offset=".35" stop-color="#7e0e21"/><stop offset=".53" stop-color="#5b0913"/><stop offset=".71" stop-color="#430509"/><stop offset=".87" stop-color="#340204"/><stop offset="1" stop-color="#2f0202"/></linearGradient><filter id="drop-shadow-1" filterUnits="userSpaceOnUse"><feOffset dx=".57" dy=".57"/><feGaussianBlur result="blur" stdDeviation="2.83"/><feFlood flood-color="#231815" flood-opacity=".9"/><feComposite in2="blur" operator="in"/><feComposite in="SourceGraphic"/></filter></defs><path class="cls-2" d="m56.49,60.51l-24.13,14.11c-1.6.94-3.58.94-5.19,0L3.04,60.51c-1.57-.92-2.54-2.61-2.54-4.43V5.63C.5,2.8,2.8.5,5.63.5h48.26c2.84,0,5.13,2.3,5.13,5.13v50.45c0,1.82-.97,3.51-2.54,4.43Z"/><g class="cls-3"><path class="cls-1" d="m48.15,51.89c-2.74,0-4.57-1.39-5.26-3.9-2.86,2.46-6.6,3.9-10.46,3.9-7.49,0-12.52-5.05-12.52-12.58,0-11.31,8.37-20.86,18.27-20.86,3.6,0,6.66,1.32,8.67,3.6.23-.77.47-1.5.74-2.25l.4-1.14h7.08l-.77,2.26c-.95,2.81-4.87,20.39-4.87,23.03,0,1.25.16,1.25.77,1.25h2.35l-1.97,6.11-.75.3c-.5.2-.99.28-1.69.28Zm-10.02-26.74c-2.2,0-4.45,1.06-6.34,2.99-2.76,2.82-4.43,7.09-4.35,11.14.04,2.71,1.65,5.87,6.05,5.87s7.49-3.72,8.94-6.91c1.08-2.16,1.53-6.29,1.53-7.31-.04-3.56-2.28-5.78-5.83-5.78Z"/><path class="cls-1" d="m52.69,20.38c-.95,2.8-4.96,20.68-4.96,23.58,0,2.16.84,2.95,2.48,2.95l-1,3.11c-.26.1-.53.16-1.06.16-.95,0-3.85,0-3.85-4.64,0-.48.05-1,.16-1.64h-.21c-2.59,3.9-7.12,6.28-11.82,6.28-6.38,0-10.81-4.11-10.81-10.87,0-10.6,7.7-19.15,16.56-19.15,4.69,0,8.02,2.48,9.13,6.17h.16c.63-2.53,1.11-4.17,1.74-5.96h3.48Zm-19.2,26.48c4.7,0,8.55-3.64,10.5-7.91,1.27-2.53,1.69-7.02,1.69-8.02-.05-4.69-3.22-7.49-7.54-7.49-6.81,0-12.55,7.91-12.4,15.88.05,3.64,2.37,7.54,7.75,7.54Z"/></g></svg>