<?xml version="1.0" encoding="UTF-8"?><svg id="_繝ｬ繧､繝､繝ｼ_1" xmlns="http://www.w3.org/2000/svg" xmlns:xlink="http://www.w3.org/1999/xlink" viewBox="0 0 239.27 255.06"><defs><style>.cls-1{fill:none;}.cls-1,.cls-2{stroke:#e60012;stroke-miterlimit:10;}.cls-3{fill:url(#_蜷咲ｧｰ譛ｪ險ｭ螳壹げ繝ｩ繝・・繧ｷ繝ｧ繝ｳ_172-3);}.cls-2{fill:#231815;}.cls-4{fill:url(#_蜷咲ｧｰ譛ｪ險ｭ螳壹げ繝ｩ繝・・繧ｷ繝ｧ繝ｳ_172);}.cls-5{fill:url(#_蜷咲ｧｰ譛ｪ險ｭ螳壹げ繝ｩ繝・・繧ｷ繝ｧ繝ｳ_172-2);}</style><radialGradient id="_蜷咲ｧｰ譛ｪ險ｭ螳壹げ繝ｩ繝・・繧ｷ繝ｧ繝ｳ_172" cx="126.54" cy="141.5" fx="126.54" fy="141.5" r="45.29" gradientUnits="userSpaceOnUse"><stop offset="0" stop-color="#f8f6fb"/><stop offset=".46" stop-color="#f1a586"/><stop offset=".79" stop-color="#e94e3d"/><stop offset="1" stop-color="#e24d3a" stop-opacity="0"/></radialGradient><radialGradient id="_蜷咲ｧｰ譛ｪ險ｭ螳壹げ繝ｩ繝・・繧ｷ繝ｧ繝ｳ_172-2" cx="150.41" cy="64.41" fx="150.41" fy="64.41" r="12.15" xlink:href="#_蜷咲ｧｰ譛ｪ險ｭ螳壹げ繝ｩ繝・・繧ｷ繝ｧ繝ｳ_172"/><radialGradient id="_蜷咲ｧｰ譛ｪ險ｭ螳壹げ繝ｩ繝・・繧ｷ繝ｧ繝ｳ_172-3" cx="195.89" cy="180.95" fx="195.89" fy="180.95" r="10.16" xlink:href="#_蜷咲ｧｰ譛ｪ險ｭ螳壹げ繝ｩ繝・・繧ｷ繝ｧ繝ｳ_172"/></defs><polygon class="cls-2" points="123.3 1.57 .73 188.42 133.91 254.02 123.3 1.57"/><polyline class="cls-2" points="123.3 1.57 238.59 165.23 133.91 254.02 123.3 6.87"/><ellipse class="cls-1" cx="127.79" cy="140.98" rx="2.76" ry="83.48" transform="translate(-44.45 60.13) rotate(-22.66)"/><ellipse class="cls-1" cx="126.54" cy="141.5" rx="83.48" ry="16.91" transform="translate(-44.47 223.91) rotate(-73.92)"/><ellipse class="cls-1" cx="129.08" cy="141.35" rx="14.38" ry="83.48" transform="translate(-56.07 189.93) rotate(-62.3)"/><ellipse class="cls-1" cx="127.79" cy="140.98" rx="83.48" ry="20.5" transform="translate(-49.85 72.8) rotate(-26.81)"/><circle class="cls-4" cx="126.54" cy="141.5" r="45.29"/><circle class="cls-5" cx="150.41" cy="64.41" r="12.15"/><circle class="cls-3" cx="195.89" cy="180.95" r="10.16"/></svg>