<?xml version="1.0" encoding="UTF-8"?><svg id="Layer1" xmlns="http://www.w3.org/2000/svg" xmlns:xlink="http://www.w3.org/1999/xlink" viewBox="0 0 243.47 262.9"><defs><style>.cls-1{fill:url(#_蜷咲ｧｰ譛ｪ險ｭ螳壹げ繝ｩ繝・・繧ｷ繝ｧ繝ｳ_172-3);}.cls-2{fill:url(#_蜷咲ｧｰ譛ｪ險ｭ螳壹げ繝ｩ繝・・繧ｷ繝ｧ繝ｳ_172);}.cls-3{fill:url(#_蜷咲ｧｰ譛ｪ險ｭ螳壹げ繝ｩ繝・・繧ｷ繝ｧ繝ｳ_172-2);}.cls-4{fill:#231815;}.cls-4,.cls-5{stroke:#e50012;stroke-miterlimit:10;stroke-width:4px;}.cls-5{fill:none;}</style><radialGradient id="_蜷咲ｧｰ譛ｪ險ｭ螳壹げ繝ｩ繝・・繧ｷ繝ｧ繝ｳ_172" cx="128.72" cy="146.22" fx="128.72" fy="146.22" r="45.29" gradientUnits="userSpaceOnUse"><stop offset="0" stop-color="#f8f6fa"/><stop offset=".46" stop-color="#f1a485"/><stop offset=".79" stop-color="#e84e3d"/><stop offset="1" stop-color="#e14c39" stop-opacity="0"/></radialGradient><radialGradient id="_蜷咲ｧｰ譛ｪ險ｭ螳壹げ繝ｩ繝・・繧ｷ繝ｧ繝ｳ_172-2" cx="152.59" cy="69.13" fx="152.59" fy="69.13" r="12.15" xlink:href="#_蜷咲ｧｰ譛ｪ險ｭ螳壹げ繝ｩ繝・・繧ｷ繝ｧ繝ｳ_172"/><radialGradient id="_蜷咲ｧｰ譛ｪ險ｭ螳壹げ繝ｩ繝・・繧ｷ繝ｧ繝ｳ_172-3" cx="198.07" cy="185.67" fx="198.07" fy="185.67" r="10.16" xlink:href="#_蜷咲ｧｰ譛ｪ險ｭ螳壹げ繝ｩ繝・・繧ｷ繝ｧ繝ｳ_172"/></defs><polygon class="cls-4" points="125.49 6.29 2.91 193.14 136.09 258.74 125.49 6.29"/><polyline class="cls-4" points="125.49 6.29 240.78 169.95 136.09 258.74 125.49 11.6"/><ellipse class="cls-5" cx="129.98" cy="145.7" rx="2.76" ry="83.48" transform="translate(-46.1 61.33) rotate(-22.66)"/><ellipse class="cls-5" cx="128.72" cy="146.22" rx="83.48" ry="16.91" transform="translate(-47.43 229.42) rotate(-73.92)"/><ellipse class="cls-5" cx="131.27" cy="146.07" rx="14.38" ry="83.48" transform="translate(-59.08 194.39) rotate(-62.3)"/><ellipse class="cls-5" cx="129.98" cy="145.7" rx="83.48" ry="20.5" transform="translate(-51.74 74.29) rotate(-26.81)"/><circle class="cls-2" cx="128.72" cy="146.22" r="45.29"/><circle class="cls-3" cx="152.59" cy="69.13" r="12.15"/><circle class="cls-1" cx="198.07" cy="185.67" r="10.16"/></svg>