<?xml version="1.0" encoding="UTF-8"?><svg id="_繝ｬ繧､繝､繝ｼ_1" xmlns="http://www.w3.org/2000/svg" xmlns:xlink="http://www.w3.org/1999/xlink" viewBox="0 0 234.21 256.07"><defs><style>.cls-1{fill:url(#_蜷咲ｧｰ譛ｪ險ｭ螳壹げ繝ｩ繝・・繧ｷ繝ｧ繝ｳ_40);}.cls-2{fill:url(#_蜷咲ｧｰ譛ｪ險ｭ螳壹げ繝ｩ繝・・繧ｷ繝ｧ繝ｳ_40-2);}.cls-3{fill:#231815;}.cls-3,.cls-4{stroke:#fff100;stroke-miterlimit:10;}.cls-5{fill:url(#_蜷咲ｧｰ譛ｪ險ｭ螳壹げ繝ｩ繝・・繧ｷ繝ｧ繝ｳ_40-3);}.cls-4{fill:none;}</style><radialGradient id="_蜷咲ｧｰ譛ｪ險ｭ螳壹げ繝ｩ繝・・繧ｷ繝ｧ繝ｳ_40" cx="110.9" cy="134.69" fx="110.9" fy="134.69" r="45.29" gradientUnits="userSpaceOnUse"><stop offset="0" stop-color="#f8f6fb"/><stop offset=".46" stop-color="#f9f6ba"/><stop offset=".79" stop-color="#efea3a"/><stop offset="1" stop-color="#efea3a" stop-opacity="0"/></radialGradient><radialGradient id="_蜷咲ｧｰ譛ｪ險ｭ螳壹げ繝ｩ繝・・繧ｷ繝ｧ繝ｳ_40-2" cx="134.77" cy="57.6" fx="134.77" fy="57.6" r="12.15" xlink:href="#_蜷咲ｧｰ譛ｪ險ｭ螳壹げ繝ｩ繝・・繧ｷ繝ｧ繝ｳ_40"/><radialGradient id="_蜷咲ｧｰ譛ｪ險ｭ螳壹げ繝ｩ繝・・繧ｷ繝ｧ繝ｳ_40-3" cx="180.25" cy="174.13" fx="180.25" fy="174.13" r="10.16" xlink:href="#_蜷咲ｧｰ譛ｪ險ｭ螳壹げ繝ｩ繝・・繧ｷ繝ｧ繝ｳ_40"/></defs><polygon class="cls-3" points="1.44 23.45 125.21 .52 232.54 45.54 92.96 75.13 1.44 23.45"/><polygon class="cls-3" points="1.36 25.88 3.02 203.66 91.48 255.21 92.96 75.13 1.36 25.88"/><polyline class="cls-3" points="91.54 77.41 232.54 45.54 225.48 207.21 91.48 255.21 91.98 81.9"/><ellipse class="cls-4" cx="112.16" cy="134.16" rx="2.76" ry="83.48" transform="translate(-43.03 53.58) rotate(-22.66)"/><ellipse class="cls-4" cx="110.9" cy="134.69" rx="83.48" ry="16.91" transform="translate(-49.23 203.96) rotate(-73.92)"/><ellipse class="cls-4" cx="113.45" cy="134.54" rx="14.38" ry="83.48" transform="translate(-58.4 172.45) rotate(-62.3)"/><ellipse class="cls-4" cx="112.16" cy="134.16" rx="83.48" ry="20.5" transform="translate(-48.46 65.01) rotate(-26.81)"/><circle class="cls-1" cx="110.9" cy="134.69" r="45.29"/><circle class="cls-2" cx="134.77" cy="57.6" r="12.15"/><circle class="cls-5" cx="180.25" cy="174.13" r="10.16"/></svg>