<?xml version="1.0" encoding="UTF-8"?><svg id="_繝ｬ繧､繝､繝ｼ_1" xmlns="http://www.w3.org/2000/svg" xmlns:xlink="http://www.w3.org/1999/xlink" viewBox="0 0 211.62 254.9"><defs><style>.cls-1{fill:url(#_蜷咲ｧｰ譛ｪ險ｭ螳壹げ繝ｩ繝・・繧ｷ繝ｧ繝ｳ_40);}.cls-2{fill:url(#_蜷咲ｧｰ譛ｪ險ｭ螳壹げ繝ｩ繝・・繧ｷ繝ｧ繝ｳ_40-2);}.cls-3{fill:#231815;}.cls-3,.cls-4{stroke:#fff100;stroke-miterlimit:10;}.cls-5{fill:url(#_蜷咲ｧｰ譛ｪ險ｭ螳壹げ繝ｩ繝・・繧ｷ繝ｧ繝ｳ_40-3);}.cls-4{fill:none;}</style><radialGradient id="_蜷咲ｧｰ譛ｪ險ｭ螳壹げ繝ｩ繝・・繧ｷ繝ｧ繝ｳ_40" cx="110.1" cy="134" fx="110.1" fy="134" r="45.29" gradientUnits="userSpaceOnUse"><stop offset="0" stop-color="#f8f6fb"/><stop offset=".46" stop-color="#f9f6ba"/><stop offset=".79" stop-color="#efea3a"/><stop offset="1" stop-color="#efea3a" stop-opacity="0"/></radialGradient><radialGradient id="_蜷咲ｧｰ譛ｪ險ｭ螳壹げ繝ｩ繝・・繧ｷ繝ｧ繝ｳ_40-2" cx="133.97" cy="56.91" fx="133.97" fy="56.91" r="12.15" xlink:href="#_蜷咲ｧｰ譛ｪ險ｭ螳壹げ繝ｩ繝・・繧ｷ繝ｧ繝ｳ_40"/><radialGradient id="_蜷咲ｧｰ譛ｪ險ｭ螳壹げ繝ｩ繝・・繧ｷ繝ｧ繝ｳ_40-3" cx="179.45" cy="173.44" fx="179.45" fy="173.44" r="10.16" xlink:href="#_蜷咲ｧｰ譛ｪ險ｭ螳壹げ繝ｩ繝・・繧ｷ繝ｧ繝ｳ_40"/></defs><polygon class="cls-3" points=".6 13.78 178.82 .52 210.86 66.86 14.44 84.23 .6 13.78"/><polygon class="cls-3" points=".51 16.2 2.37 213.8 15.03 251.79 14.44 84.23 .51 16.2"/><polyline class="cls-3" points="14.44 84.23 210.86 66.86 207.03 235 15.03 249.43 14.44 86.29"/><ellipse class="cls-4" cx="111.36" cy="133.47" rx="2.76" ry="83.48" transform="translate(-42.83 53.21) rotate(-22.66)"/><ellipse class="cls-4" cx="110.1" cy="134" rx="83.48" ry="16.91" transform="translate(-49.14 202.69) rotate(-73.92)"/><ellipse class="cls-4" cx="112.65" cy="133.84" rx="14.38" ry="83.48" transform="translate(-58.22 171.37) rotate(-62.3)"/><ellipse class="cls-4" cx="111.36" cy="133.47" rx="83.48" ry="20.5" transform="translate(-48.23 64.58) rotate(-26.81)"/><circle class="cls-1" cx="110.1" cy="134" r="45.29"/><circle class="cls-2" cx="133.97" cy="56.91" r="12.15"/><circle class="cls-5" cx="179.45" cy="173.44" r="10.16"/></svg>