<?xml version="1.0" encoding="UTF-8"?><svg id="Layer1" xmlns="http://www.w3.org/2000/svg" xmlns:xlink="http://www.w3.org/1999/xlink" viewBox="0 0 243.55 260.23"><defs><style>.cls-1{fill:url(#_蜷咲ｧｰ譛ｪ險ｭ螳壹げ繝ｩ繝・・繧ｷ繝ｧ繝ｳ_40);}.cls-2{fill:url(#_蜷咲ｧｰ譛ｪ險ｭ螳壹げ繝ｩ繝・・繧ｷ繝ｧ繝ｳ_40-2);}.cls-3{fill:url(#_蜷咲ｧｰ譛ｪ險ｭ螳壹げ繝ｩ繝・・繧ｷ繝ｧ繝ｳ_40-3);}.cls-4{fill:none;}.cls-4,.cls-5{stroke:#fff000;stroke-miterlimit:10;stroke-width:4px;}.cls-5{fill:#231815;}</style><radialGradient id="_蜷咲ｧｰ譛ｪ險ｭ螳壹げ繝ｩ繝・・繧ｷ繝ｧ繝ｳ_40" cx="115.24" cy="136.24" fx="115.24" fy="136.24" r="45.29" gradientUnits="userSpaceOnUse"><stop offset="0" stop-color="#f8f6fa"/><stop offset=".46" stop-color="#f8f5b9"/><stop offset=".79" stop-color="#eee93a"/><stop offset="1" stop-color="#eee93a" stop-opacity="0"/></radialGradient><radialGradient id="_蜷咲ｧｰ譛ｪ險ｭ螳壹げ繝ｩ繝・・繧ｷ繝ｧ繝ｳ_40-2" cx="139.1" cy="59.16" fx="139.1" fy="59.16" r="12.15" xlink:href="#_蜷咲ｧｰ譛ｪ險ｭ螳壹げ繝ｩ繝・・繧ｷ繝ｧ繝ｳ_40"/><radialGradient id="_蜷咲ｧｰ譛ｪ險ｭ螳壹げ繝ｩ繝・・繧ｷ繝ｧ繝ｳ_40-3" cx="184.58" cy="175.69" fx="184.58" fy="175.69" r="10.16" xlink:href="#_蜷咲ｧｰ譛ｪ險ｭ螳壹げ繝ｩ繝・・繧ｷ繝ｧ繝ｳ_40"/></defs><polygon class="cls-5" points="5.77 25.01 129.54 2.08 236.88 47.09 97.29 76.69 5.77 25.01"/><polygon class="cls-5" points="5.69 27.44 7.36 205.22 95.81 256.76 97.29 76.69 5.69 27.44"/><polygon class="cls-5" points="98.08 77.92 239.43 48.21 229.81 208.76 95.81 256.76 98.08 77.92 98.08 77.92"/><ellipse class="cls-4" cx="116.49" cy="135.72" rx="2.76" ry="83.48" transform="translate(-43.3 55.36) rotate(-22.66)"/><ellipse class="cls-4" cx="115.24" cy="136.24" rx="83.48" ry="16.91" transform="translate(-47.59 209.25) rotate(-73.92)"/><ellipse class="cls-4" cx="117.78" cy="136.09" rx="14.38" ry="83.48" transform="translate(-57.46 177.11) rotate(-62.3)"/><ellipse class="cls-4" cx="116.49" cy="135.72" rx="83.48" ry="20.5" transform="translate(-48.69 67.14) rotate(-26.81)"/><circle class="cls-1" cx="115.24" cy="136.24" r="45.29"/><circle class="cls-2" cx="139.1" cy="59.16" r="12.15"/><circle class="cls-3" cx="184.58" cy="175.69" r="10.16"/></svg>